<svg xmlns="http://www.w3.org/2000/svg" xmlns:xlink="http://www.w3.org/1999/xlink" width="96" height="96" viewBox="0 0 96 96"><defs><clipPath id="a"><rect y="2" width="14" height="24" fill="none"/></clipPath></defs><g transform="translate(-1388.041 -958)"><circle cx="48" cy="48" r="48" transform="translate(1388.041 958)" fill="#00ccc6"/><path d="M1438.165,1015.243l-4.311-10.557-10.557-4.31a6.724,6.724,0,0,0-7.659,1.837c-3.394,3.979-7.4,11.088-3.474,19.879a8.488,8.488,0,0,0,4.284,4.284c8.791,3.927,15.9-.08,19.88-3.473a6.729,6.729,0,0,0,1.837-7.66Zm0,0" fill="#009994"/><rect width="51" height="51" transform="translate(1410.541 977)" fill="none"/><path d="M1421.854,1016.687a3.326,3.326,0,0,1,0-4.705l21.649-21.649,4.7,4.705-21.649,21.649a3.327,3.327,0,0,1-4.7,0Zm0,0" fill="#174d4b"/><path d="M1445.636,996.511l-3.606-3.607a3.315,3.315,0,0,1,0-4.687l3.079-3.079,8.294,8.294-3.079,3.079a3.316,3.316,0,0,1-4.688,0Zm0,0" fill="#40d5d0"/><path d="M1449.661,993.311l-4.432-4.431a6.227,6.227,0,0,1,0-8.8l1.263-1.263a6.229,6.229,0,0,1,8.8,0l4.431,4.431a6.229,6.229,0,0,1,0,8.8l-1.262,1.262a6.227,6.227,0,0,1-8.8,0Zm2.043-10.906a1.151,1.151,0,0,0-1.626,0l-1.263,1.263a1.152,1.152,0,0,0,0,1.626l4.431,4.431a1.151,1.151,0,0,0,1.627,0l1.263-1.262a1.153,1.153,0,0,0,0-1.627Zm0,0" fill="#eaeaea"/><rect width="51" height="51" transform="translate(1410.541 977)" fill="none"/><path d="M1460.653,1047.5a48.052,48.052,0,0,1-48.25.01,26.726,26.726,0,0,1,48.25-.01Z" fill="#009994"/><g transform="translate(1429.978 1026.663)" clip-path="url(#a)" style="isolation:isolate"><text transform="translate(0 24)" fill="#fff" font-size="19.875" font-family="Dunkin"><tspan x="0" y="0">6</tspan></text></g></g></svg>